<svg width="64" height="65" viewBox="0 0 64 65" fill="none" >
<g filter="url(#filter0_dd_222_2249)">
<circle cx="32" cy="24.8911" r="12" fill="white"/>
<path fill-rule="evenodd" clip-rule="evenodd" d="M28.2675 17.8911C26.4629 17.8911 25 19.354 25 21.1586V28.6936C25 30.4981 26.4629 31.961 28.2675 31.961H35.8024C37.607 31.961 39.0699 30.4981 39.0699 28.6936V21.1586C39.0699 19.354 37.607 17.8911 35.8024 17.8911H28.2675ZM24 21.1586C24 18.8017 25.9106 16.8911 28.2675 16.8911H35.8024C38.1593 16.8911 40.0699 18.8017 40.0699 21.1586V28.6936C40.0699 31.0504 38.1593 32.961 35.8024 32.961H28.2675C25.9106 32.961 24 31.0504 24 28.6936V21.1586ZM32.4364 22.4065C31.9134 22.329 31.3792 22.4183 30.9098 22.6619C30.4404 22.9054 30.0598 23.2907 29.8221 23.7631C29.5844 24.2354 29.5016 24.7707 29.5856 25.2927C29.6696 25.8148 29.9161 26.2971 30.29 26.671C30.6639 27.0449 31.1462 27.2914 31.6683 27.3754C32.1903 27.4594 32.7256 27.3766 33.1979 27.1389C33.6703 26.9012 34.0556 26.5206 34.2991 26.0512C34.5427 25.5818 34.632 25.0476 34.5545 24.5246C34.4753 23.991 34.2267 23.4971 33.8453 23.1157C33.4639 22.7343 32.97 22.4857 32.4364 22.4065ZM30.4492 21.7742C31.1053 21.4338 31.852 21.3089 32.5831 21.4174C33.3289 21.5279 34.0193 21.8755 34.5524 22.4086C35.0855 22.9417 35.4331 23.6321 35.5436 24.3779C35.6521 25.109 35.5272 25.8557 35.1868 26.5118C34.8463 27.1678 34.3077 27.6998 33.6475 28.0321C32.9873 28.3644 32.2391 28.4801 31.5094 28.3627C30.7797 28.2453 30.1055 27.9007 29.5829 27.3781C29.0603 26.8555 28.7157 26.1813 28.5983 25.4516C28.4809 24.7219 28.5966 23.9737 28.9289 23.3135C29.2612 22.6533 29.7932 22.1147 30.4492 21.7742ZM36.1792 20.2819C35.903 20.2819 35.6792 20.5057 35.6792 20.7819C35.6792 21.058 35.903 21.2819 36.1792 21.2819H36.1878C36.464 21.2819 36.6878 21.058 36.6878 20.7819C36.6878 20.5057 36.464 20.2819 36.1878 20.2819H36.1792Z" fill="black"/>
</g>
<defs>
<filter id="filter0_dd_222_2249" x="0" y="0.891113" width="64" height="64" filterUnits="userSpaceOnUse" color-interpolation-filters="sRGB">
<feFlood flood-opacity="0" result="BackgroundImageFix"/>
<feColorMatrix in="SourceAlpha" type="matrix" values="0 0 0 0 0 0 0 0 0 0 0 0 0 0 0 0 0 0 127 0" result="hardAlpha"/>
<feMorphology radius="4" operator="erode" in="SourceAlpha" result="effect1_dropShadow_222_2249"/>
<feOffset dy="8"/>
<feGaussianBlur stdDeviation="12"/>
<feColorMatrix type="matrix" values="0 0 0 0 0.0941176 0 0 0 0 0.152941 0 0 0 0 0.294118 0 0 0 0.08 0"/>
<feBlend mode="normal" in2="BackgroundImageFix" result="effect1_dropShadow_222_2249"/>
<feColorMatrix in="SourceAlpha" type="matrix" values="0 0 0 0 0 0 0 0 0 0 0 0 0 0 0 0 0 0 127 0" result="hardAlpha"/>
<feMorphology radius="6" operator="erode" in="SourceAlpha" result="effect2_dropShadow_222_2249"/>
<feOffset dy="6"/>
<feGaussianBlur stdDeviation="6"/>
<feColorMatrix type="matrix" values="0 0 0 0 0.0941176 0 0 0 0 0.152941 0 0 0 0 0.294118 0 0 0 0.12 0"/>
<feBlend mode="normal" in2="effect1_dropShadow_222_2249" result="effect2_dropShadow_222_2249"/>
<feBlend mode="normal" in="SourceGraphic" in2="effect2_dropShadow_222_2249" result="shape"/>
</filter>
</defs>
</svg>
