<?xml version="1.0" encoding="utf-8"?>
<!-- Generator: Adobe Illustrator 28.4.0, SVG Export Plug-In . SVG Version: 6.00 Build 0)  -->
<svg version="1.1" id="Layer_2_00000155140693699551234300000010980623807071680445_"
	 xmlns="http://www.w3.org/2000/svg" xmlns:xlink="http://www.w3.org/1999/xlink" x="0px" y="0px" viewBox="0 0 188.2 135.1"
	 style="enable-background:new 0 0 188.2 135.1;" xml:space="preserve">
<style type="text/css">
	.st0{fill:#24201F;}
</style>
<g id="DRU_PO">
	<polygon class="st0" points="94.1,135.1 131.3,135.1 188.2,95.7 188.2,67.6 	"/>
	<polygon class="st0" points="94.1,0 188.2,67.6 188.2,39.5 131.3,0 	"/>
	<polygon class="st0" points="0,86.3 0,95.7 56.9,135.1 94.1,135.1 0,67.6 	"/>
	<polygon class="st0" points="56.9,0 0,39.5 0,67.6 94.1,0 	"/>
	<g>
		<path class="st0" d="M43,48.1v44.2c0,6,5.4,5.4,5.4,5.4h26.8V26.3H61.4v17.6H48C42.9,43.9,43,48.1,43,48.1 M57.2,51.4
			c0,0,0-1.8,1.8-1.8s2,1.9,2,1.9v39.9c0,0.6-0.6,1.9-1.9,1.9c-1.7,0-2-1.8-2-1.8L57.2,51.4L57.2,51.4z"/>
		<path class="st0" d="M96.2,50.2v20.3h13.7V48c0-4.4-4.5-4.1-4.5-4.1H79.1v53.8h14.1V50.2c0,0,0.2-1.5,1.5-1.5S96.2,50.2,96.2,50.2
			"/>
		<path class="st0" d="M115.9,97.7h25.4c4.4,0,3.8-3.8,3.8-3.8V43.9h-13.7v48.1c0,0-0.1,1.7-2.5,1.7c-2.1,0-2.2-1.8-2.2-1.8v-48
			h-13.8v50.8C112.9,97.5,115.9,97.7,115.9,97.7"/>
	</g>
</g>
</svg>
