<?xml version="1.0" encoding="UTF-8"?>
<svg id="Layer_2" data-name="Layer 2" xmlns="http://www.w3.org/2000/svg" viewBox="0 0 2955.43 994.5">
  <defs>
    <style>
      .cls-1 {
        fill-rule: evenodd;
      }

      .cls-1, .cls-2 {
        fill: #4a433e;
        stroke-width: 0px;
      }
    </style>
  </defs>
  <g id="Laag_1" data-name="Laag 1">
    <g>
      <rect class="cls-2" x="1440.35" width="74.72" height="573.03"/>
      <g>
        <rect class="cls-2" width="537.3" height="74.71"/>
        <rect class="cls-2" y="249.17" width="537.3" height="74.69"/>
        <rect class="cls-2" y="498.32" width="537.3" height="74.71"/>
      </g>
      <polygon class="cls-1" points="1697.89 498.32 2160.55 498.32 2160.55 323.86 1772.6 323.86 1697.89 323.86 1697.89 249.17 1697.89 74.71 1697.89 0 1772.6 0 2235.23 0 2235.23 74.71 1772.6 74.71 1772.6 249.17 2160.55 249.17 2235.23 249.17 2235.23 323.86 2235.23 498.32 2235.23 573.03 2160.55 573.03 1697.89 573.03 1697.89 498.32"/>
      <g>
        <rect class="cls-2" x="2417.99" width="537.44" height="74.71"/>
        <rect class="cls-2" x="2417.99" y="249.17" width="537.44" height="74.69"/>
        <rect class="cls-2" x="2417.99" y="498.32" width="537.44" height="74.71"/>
      </g>
      <polygon class="cls-1" points="794.83 498.32 1257.54 498.32 1257.54 573.03 794.83 573.03 720.2 573.03 720.2 573.03 720.2 0 794.83 0 794.83 498.32"/>
    </g>
    <g>
      <path class="cls-2" d="M562.12,994.5h-17.08c-3.55,0-5.31-1.77-5.31-5.31v-182.92c0-3.54,1.77-5.31,5.31-5.31h17.08c3.54,0,5.31,1.77,5.31,5.31v14.8h1.52c7.08-13.41,20.49-20.11,40.23-20.11h14.04c22.26,0,37.7,8.6,46.3,25.8,4.04-8.35,10.44-14.73,19.17-19.16,8.73-4.42,17.9-6.64,27.51-6.64h13.28c17.2,0,30.61,4.93,40.23,14.8,9.61,9.86,14.42,23.66,14.42,41.37v132.06c0,3.55-1.77,5.31-5.31,5.31h-17.08c-3.55,0-5.31-1.77-5.31-5.31v-130.93c0-22.01-10.63-33.01-31.88-33.01h-12.52c-11.38,0-20.18,3.22-26.38,9.68-6.2,6.45-9.3,15.25-9.3,26.38v127.89c0,3.55-1.77,5.31-5.31,5.31h-17.08c-3.55,0-5.31-1.77-5.31-5.31v-130.93c0-22.01-10.63-33.01-31.88-33.01h-14.04c-11.39,0-20.11,3.04-26.19,9.11-6.07,6.07-9.11,14.68-9.11,25.81v129.03c0,3.55-1.77,5.31-5.31,5.31Z"/>
      <path class="cls-2" d="M1020.56,994.5h-80.45c-17.46,0-31.18-4.93-41.18-14.8-10-9.86-14.99-23.65-14.99-41.36v-81.21c0-17.71,4.99-31.5,14.99-41.37,9.99-9.87,23.72-14.8,41.18-14.8h31.88c17.46,0,31.12,4.93,40.99,14.8,9.87,9.86,14.8,23.66,14.8,41.37v48.2c0,3.79-1.77,5.69-5.31,5.69h-107.4c-2.53,0-3.79,1.14-3.79,3.42v23.15c0,22.01,10.63,33.02,31.88,33.02h77.42c3.54,0,5.31,1.77,5.31,5.31v13.66c0,3.29-1.77,4.93-5.31,4.93ZM915.06,890.9h81.97c2.53,0,3.8-1.26,3.8-3.8v-29.22c0-21.76-10.63-32.64-31.88-32.64h-25.81c-21.25,0-31.88,10.88-31.88,32.64v29.22c0,2.53,1.26,3.8,3.79,3.8Z"/>
      <path class="cls-2" d="M1201.57,994.5h-21.25c-17.21,0-30.62-4.93-40.23-14.8-9.62-9.86-14.42-23.65-14.42-41.36v-132.07c0-3.54,1.77-5.31,5.31-5.31h17.08c3.54,0,5.31,1.77,5.31,5.31v130.93c0,22.01,10.5,33.01,31.5,33.01h21.63c11.38,0,20.11-3.04,26.18-9.11,6.07-6.07,9.11-14.67,9.11-25.81v-129.03c0-3.54,1.77-5.31,5.31-5.31h17.08c3.54,0,5.31,1.77,5.31,5.31v182.92c0,3.55-1.77,5.31-5.31,5.31h-17.08c-3.55,0-5.31-1.77-5.31-5.31v-14.8h-1.52c-6.33,13.41-19.23,20.11-38.71,20.11Z"/>
      <path class="cls-2" d="M1375,989.19v-256.16c0-3.54,1.77-5.31,5.31-5.31h17.08c3.54,0,5.31,1.78,5.31,5.31v85.77h1.52c6.32-13.41,19.22-20.11,38.71-20.11h21.25c17.2,0,30.8,4.93,40.8,14.8,9.99,9.87,14.99,23.53,14.99,40.99v83.87c0,17.71-5,31.5-14.99,41.36-10,9.87-23.59,14.8-40.8,14.8h-83.87c-3.55,0-5.31-1.77-5.31-5.31ZM1406.5,970.21h53.89c21.5,0,32.26-11,32.26-33.01v-81.21c0-22.01-10.76-33.02-32.26-33.02h-22.39c-11.39,0-20.11,3.04-26.19,9.11-6.07,6.07-9.11,14.55-9.11,25.43v109.3c0,2.27,1.26,3.41,3.8,3.41Z"/>
      <path class="cls-2" d="M1754.5,994.5h-80.45c-17.46,0-31.18-4.93-41.18-14.8-10-9.86-14.99-23.65-14.99-41.36v-81.21c0-17.71,4.99-31.5,14.99-41.37,9.99-9.87,23.72-14.8,41.18-14.8h31.88c17.46,0,31.12,4.93,40.99,14.8,9.87,9.86,14.8,23.66,14.8,41.37v48.2c0,3.79-1.77,5.69-5.31,5.69h-107.4c-2.53,0-3.79,1.14-3.79,3.42v23.15c0,22.01,10.63,33.02,31.88,33.02h77.42c3.54,0,5.31,1.77,5.31,5.31v13.66c0,3.29-1.77,4.93-5.31,4.93ZM1649,890.9h81.97c2.53,0,3.8-1.26,3.8-3.8v-29.22c0-21.76-10.63-32.64-31.88-32.64h-25.81c-21.25,0-31.88,10.88-31.88,32.64v29.22c0,2.53,1.26,3.8,3.79,3.8Z"/>
      <path class="cls-2" d="M1885.8,994.5h-17.08c-3.55,0-5.31-1.77-5.31-5.31v-256.16c0-3.54,1.77-5.31,5.31-5.31h17.08c3.54,0,5.31,1.78,5.31,5.31v256.16c0,3.55-1.77,5.31-5.31,5.31Z"/>
      <path class="cls-2" d="M2131.34,994.5h-80.45c-17.46,0-31.18-4.93-41.18-14.8-10-9.86-14.99-23.65-14.99-41.36v-81.21c0-17.71,4.99-31.5,14.99-41.37,9.99-9.87,23.72-14.8,41.18-14.8h31.88c17.46,0,31.12,4.93,40.99,14.8,9.87,9.86,14.8,23.66,14.8,41.37v48.2c0,3.79-1.77,5.69-5.31,5.69h-107.4c-2.53,0-3.79,1.14-3.79,3.42v23.15c0,22.01,10.63,33.02,31.88,33.02h77.42c3.54,0,5.31,1.77,5.31,5.31v13.66c0,3.29-1.77,4.93-5.31,4.93ZM2025.84,890.9h81.97c2.53,0,3.8-1.26,3.8-3.8v-29.22c0-21.76-10.63-32.64-31.88-32.64h-25.81c-21.25,0-31.88,10.88-31.88,32.64v29.22c0,2.53,1.26,3.8,3.79,3.8Z"/>
      <path class="cls-2" d="M2260.74,994.5h-17.08c-3.55,0-5.31-1.77-5.31-5.31v-182.92c0-3.54,1.77-5.31,5.31-5.31h17.08c3.54,0,5.31,1.77,5.31,5.31v14.8h1.52c6.32-13.41,19.22-20.11,38.71-20.11h21.25c17.2,0,30.61,4.93,40.23,14.8,9.61,9.86,14.42,23.66,14.42,41.37v132.06c0,3.55-1.77,5.31-5.31,5.31h-17.08c-3.55,0-5.31-1.77-5.31-5.31v-130.93c0-22.01-10.63-33.01-31.88-33.01h-21.25c-11.39,0-20.11,3.04-26.19,9.11-6.07,6.07-9.11,14.68-9.11,25.81v129.03c0,3.55-1.77,5.31-5.31,5.31Z"/>
    </g>
  </g>
</svg>