<?xml version="1.0" encoding="UTF-8"?>
<svg id="Layer_2" data-name="Layer 2" xmlns="http://www.w3.org/2000/svg" viewBox="0 0 641.04 184.26">
  <defs>
    <style>
      .cls-1 {
        fill: #4f565c;
        stroke-width: 0px;
      }
    </style>
  </defs>
  <g id="Layer_1-2" data-name="Layer 1">
    <g>
      <path class="cls-1" d="M198.03,115.13h-6.31c-5.33,0-6.8-.81-7.76-3.71l-11.27-29.6h-45.32l-11.33,29.6c-1.13,2.9-2.58,3.71-7.77,3.71h-5.65c-3.23,0-3.88-1.45-2.91-4.2L141.75,3.56c.97-2.91,2.27-3.56,5.34-3.56h6.47c3.07,0,4.36.65,5.33,3.39l42.04,107.54c.97,2.75.32,4.2-2.91,4.2ZM150.07,20.89l-18.4,48.16h36.67l-18.27-48.16h0Z"/>
      <path class="cls-1" d="M409.74.33h7.12c3.23,0,4.36,1.13,4.36,4.2v106.39c0,3.08-1.13,4.2-4.36,4.2h-7.12c-3.07,0-4.2-1.12-4.2-4.2V4.53c0-3.07,1.13-4.2,4.2-4.2Z"/>
      <path class="cls-1" d="M534.69,34.77c-.03,13.45-7.17,28.26-22.04,31.65,3.55,1.94,6.12,5.55,8.38,9.58l22.01,34.77c1.3,2.42.97,4.36-2.26,4.36h-7.12c-5.34,0-6.95-.64-8.41-3.71l-18.78-29.6c-5.85-8.96-9.38-12.77-21.34-12.77h-13.24v41.88c0,3.08-1.14,4.2-4.37,4.2h-7.12c-3.07,0-4.21-1.12-4.21-4.2V4.53c0-3.07,1.14-4.2,4.21-4.2h41.38c21.67,0,32.94,16.74,32.9,34.44ZM498.3,14.88h-28.45v39.61h28.45c12.77,0,20.05-7.1,20.05-19.73s-7.28-19.89-20.05-19.89Z"/>
      <path class="cls-1" d="M15.68,110.93c0,3.08-1.13,4.2-4.36,4.2h-7.11c-3.08,0-4.21-1.12-4.21-4.2V4.53C0,1.46,1.13.33,4.21.33h7.11c3.23,0,4.36,1.13,4.36,4.2v106.39Z"/>
      <path class="cls-1" d="M85.15,111.12l-42.24-54.78L82.96,4.36c1.62-1.93.81-4.03-2.1-4.03h-7.93c-5.01,0-6.15.48-8.57,3.55L27.46,52.97v.02c-.69.94-1.1,2.08-1.1,3.33s.44,2.45,1.16,3.4h0l39.04,51.88c2.42,3.07,3.56,3.56,8.57,3.56h7.92c2.91,0,3.72-2.1,2.1-4.04Z"/>
      <path class="cls-1" d="M383.34,14.88V.32h-69.2c-3.07.01-4.21,1.14-4.21,4.21v106.39c0,3.08,1.14,4.2,4.21,4.2h7.11c3.24,0,4.36-1.12,4.36-4.2v-41.8h45.72s0-14.55,0-14.55h-45.72V14.88h57.73Z"/>
      <path class="cls-1" d="M236.67,100.58V4.53c0-3.07-1.13-4.2-4.36-4.2h-7.12c-3.07,0-4.21,1.13-4.21,4.2v106.39c0,3.08,1.14,4.2,4.21,4.2h66.63s0-14.55,0-14.55h-55.15Z"/>
      <path class="cls-1" d="M640.24,100.59h-59.66v-31.55l46.25.02v-14.57h-46.25V14.88h57.66V.33h-69.14c-3.07,0-4.21,1.13-4.21,4.2v106.39c0,3.08,1.14,4.2,4.21,4.2l71.14.02v-14.56Z"/>
      <g>
        <path class="cls-1" d="M315.09,152.3v11.95h17.71v3.28h-17.71v15.96h-3.46v-34.46h22.93v3.28h-19.47Z"/>
        <path class="cls-1" d="M345.7,149.03h3.46v34.46h-3.46v-34.46Z"/>
        <path class="cls-1" d="M385.12,183.49l-8.29-13.67h-10.4v13.67h-3.47v-34.46h14.84c6.98,0,10.83,4.11,10.83,10.45s-2.68,9.38-7.96,10.1l8.69,13.91h-4.25ZM366.42,166.55h11.08c4.93,0,7.66-1.76,7.66-7.08s-2.73-7.17-7.56-7.17h-11.18v14.25Z"/>
        <path class="cls-1" d="M424.35,152.3h-20.21v11.71h18.4v3.22h-18.4v12.98h20.3v3.27h-23.77v-34.46h23.67v3.28Z"/>
        <path class="cls-1" d="M461.6,159.57c0,6.93-3.76,10.69-11.17,10.69h-11.03v13.23h-3.47v-34.46h14.5c7.61,0,11.17,4.34,11.17,10.54ZM458.09,159.57c0-5.27-2.78-7.26-7.47-7.26h-11.22v14.69h11.22c5.12,0,7.47-2.48,7.47-7.43Z"/>
        <path class="cls-1" d="M495.21,180.22v3.27h-22.55v-34.46h3.46v31.19h19.08Z"/>
        <path class="cls-1" d="M526.9,172.84h-14.79l-4.05,10.65h-3.71l13.46-34.46h3.62l13.37,34.46h-3.91l-4-10.65ZM525.87,169.58l-6.34-16.99-6.35,16.99h12.69Z"/>
        <path class="cls-1" d="M542.06,166.26c0-10.98,6.88-18.01,15.86-18.01,4.74,0,9.23,2.01,12.4,5.46l-2.1,2.25c-2.68-2.78-6.29-4.44-10.05-4.44-7.17,0-12.55,5.9-12.55,14.73s5.42,14.74,12.6,14.74c3.61,0,7.32-1.52,10-4.45l2.05,2.25c-3.32,3.61-7.86,5.46-12.4,5.46-8.88,0-15.81-7.03-15.81-18.01Z"/>
        <path class="cls-1" d="M605.05,152.3h-20.21v11.71h18.4v3.22h-18.4v12.98h20.3v3.27h-23.77v-34.46h23.67v3.28Z"/>
        <path class="cls-1" d="M615.66,179.72l1.46-2.73c3.08,2.49,7.22,4.01,11.37,4.01,5.12,0,8.93-2.2,8.93-6.2,0-4.93-5.66-5.82-10.79-7.22-4.29-1.13-10.05-2.99-10.05-9.87s5.9-9.46,12-9.46c4.3,0,8.34,1.32,11.66,3.47l-1.37,2.73c-3.27-1.86-6.68-2.98-10.25-2.98-4.3,0-8.54,1.56-8.54,6.1,0,4.83,4.88,5.9,10.84,7.46,3.66.94,10.1,2.64,10.1,9.53,0,6.14-5.23,9.71-12.4,9.71-4.93,0-9.71-1.8-12.98-4.54Z"/>
      </g>
    </g>
  </g>
</svg>