<?xml version="1.0" standalone="no"?>
<!DOCTYPE svg PUBLIC "-//W3C//DTD SVG 20010904//EN"
 "http://www.w3.org/TR/2001/REC-SVG-20010904/DTD/svg10.dtd">
<svg version="1.0" xmlns="http://www.w3.org/2000/svg"
 width="709.000000pt" height="567.000000pt" viewBox="0 0 709.000000 567.000000"
 preserveAspectRatio="xMidYMid meet">

<g transform="translate(0.000000,567.000000) scale(0.100000,-0.100000)"
fill="#000000" stroke="none">
<path d="M3371 4650 c-489 -68 -816 -556 -691 -1032 43 -165 104 -273 220
-389 100 -101 203 -166 323 -202 126 -38 155 -43 257 -46 382 -11 725 271 820
673 11 48 20 62 43 75 58 32 62 37 48 54 -11 14 -6 19 36 40 120 61 255 86
348 63 42 -10 64 -11 72 -4 27 22 12 38 -54 58 -124 37 -207 51 -338 57 -214
9 -385 -31 -660 -152 -285 -126 -366 -151 -460 -141 -33 3 -72 8 -86 12 -20 4
-28 1 -33 -13 -13 -33 77 -89 238 -146 161 -57 185 -60 302 -46 56 6 107 10
115 7 9 -3 -3 -21 -36 -54 -221 -220 -596 -183 -771 77 -59 87 -78 145 -82
261 -4 90 -1 116 18 172 72 217 260 346 502 346 101 0 187 -25 265 -77 53 -35
143 -126 143 -145 0 -11 48 -5 175 22 50 11 107 22 127 25 l38 6 -26 52 c-108
214 -320 379 -554 431 -87 20 -220 27 -299 16z m-24 -966 c-3 -3 -12 -4 -19
-1 -8 3 -5 6 6 6 11 1 17 -2 13 -5z m66 -1 c-7 -2 -21 -2 -30 0 -10 3 -4 5 12
5 17 0 24 -2 18 -5z"/>
<path d="M1780 2570 c-86 -18 -90 -19 -90 -43 0 -20 5 -22 52 -22 l53 0 0
-251 c0 -279 0 -278 -66 -289 -31 -5 -39 -11 -39 -28 0 -22 0 -22 245 -20 263
1 290 5 363 55 92 63 138 167 130 292 -9 127 -73 222 -186 278 l-66 33 -176 2
c-96 1 -195 -2 -220 -7z m356 -59 c53 -24 108 -90 125 -149 22 -75 16 -216
-11 -281 -32 -74 -90 -111 -172 -111 -64 0 -111 18 -128 49 -11 22 -14 493 -3
504 14 15 148 6 189 -12z"/>
<path d="M3543 2566 c-60 -19 -106 -50 -157 -107 -59 -65 -81 -131 -80 -236 0
-71 5 -90 33 -147 36 -73 102 -132 176 -157 61 -21 274 -16 350 8 l60 19 5
106 c3 59 7 108 10 110 3 2 17 9 33 16 15 6 27 18 27 26 0 12 -25 15 -141 18
-78 2 -146 0 -151 -3 -20 -13 0 -36 37 -43 48 -9 59 -39 48 -131 -9 -81 -25
-95 -109 -95 -142 0 -237 141 -219 325 17 172 119 273 255 250 48 -8 112 -53
142 -100 16 -24 29 -34 43 -33 18 3 20 9 17 63 -4 71 -18 87 -95 110 -62 18
-225 19 -284 1z"/>
<path d="M4138 2373 c-67 -3 -88 -7 -88 -18 0 -8 12 -15 28 -17 l27 -3 3 -188
2 -188 -35 -15 c-19 -8 -35 -18 -35 -22 0 -4 54 -8 120 -8 90 0 120 3 120 13
0 7 -17 17 -37 22 l-38 10 -1 86 0 85 27 0 c34 0 42 -11 98 -123 l46 -90 78
-3 c79 -3 97 7 52 28 -15 7 -46 44 -72 87 -26 42 -53 83 -60 92 -18 22 -17 25
17 39 55 23 76 95 44 150 -36 60 -92 72 -296 63z m172 -51 c13 -10 23 -33 27
-59 5 -35 2 -45 -20 -67 -21 -21 -36 -26 -73 -26 l-46 0 6 31 c3 17 6 56 6 85
l0 54 39 0 c22 0 48 -8 61 -18z"/>
<path d="M4552 2360 c2 -8 14 -17 28 -18 14 -2 29 -7 34 -12 5 -5 5 -89 1
-190 l-7 -182 -29 -10 c-16 -5 -29 -15 -29 -21 0 -9 34 -12 113 -11 90 0 112
3 112 15 0 9 -12 15 -32 17 l-33 3 0 189 0 189 32 9 c18 4 34 15 36 23 2 11
-18 14 -113 14 -99 1 -115 -1 -113 -15z"/>
<path d="M4830 2358 c0 -14 8 -18 35 -18 l34 0 3 -212 c5 -347 1 -370 -52
-313 -37 39 -80 28 -80 -20 0 -36 34 -58 78 -52 54 7 88 31 120 86 27 46 27
46 30 277 l3 232 30 6 c16 3 29 11 29 18 0 10 -28 13 -115 13 -103 0 -115 -2
-115 -17z"/>
<path d="M5183 2360 c-57 -35 -77 -98 -49 -163 19 -44 40 -61 121 -93 39 -15
80 -36 93 -47 36 -33 28 -78 -19 -102 -59 -31 -120 -12 -150 47 -29 57 -49 50
-49 -17 0 -54 0 -54 38 -64 53 -15 148 -13 180 3 47 25 74 62 79 110 10 87
-22 127 -138 171 -76 29 -105 59 -95 98 6 25 43 47 77 47 18 0 40 -19 94 -82
25 -29 36 -10 29 46 -8 57 -24 66 -117 66 -44 0 -71 -6 -94 -20z"/>
<path d="M2490 2356 c0 -10 13 -16 38 -18 l37 -3 3 -192 2 -193 -40 -6 c-22
-4 -40 -12 -40 -18 0 -8 64 -11 227 -11 l227 0 11 63 c12 65 2 95 -19 56 -6
-10 -25 -33 -43 -52 l-32 -33 -93 3 -93 3 -3 88 -3 87 75 0 c77 0 86 -5 86
-51 0 -10 7 -19 15 -19 12 0 15 17 15 90 0 73 -3 90 -15 90 -8 0 -15 -8 -15
-18 0 -38 -23 -52 -92 -59 l-68 -6 0 92 0 91 79 0 c99 0 124 -9 145 -54 27
-58 48 -48 44 22 l-3 57 -222 3 c-190 2 -223 0 -223 -12z"/>
<path d="M784 1573 c-38 -101 -57 -141 -73 -148 -35 -16 -24 -25 34 -25 30 0
55 5 55 10 0 6 -6 10 -14 10 -24 0 -28 17 -12 55 14 32 19 35 54 35 41 0 50
-7 70 -53 11 -25 10 -28 -16 -39 -27 -12 -27 -12 16 -16 23 -2 61 -1 85 1 34
3 38 5 20 11 -15 6 -32 31 -54 85 -75 183 -87 206 -100 209 -10 1 -30 -41 -65
-135z m69 -3 l15 -40 -34 0 c-19 0 -34 4 -34 9 0 17 22 71 29 71 5 0 15 -18
24 -40z"/>
<path d="M3800 1700 c0 -5 9 -10 20 -10 19 0 20 -7 20 -135 0 -111 -3 -135
-14 -135 -8 0 -18 -4 -21 -10 -4 -6 22 -10 69 -10 42 0 76 4 76 9 0 5 -10 11
-22 13 -21 3 -23 9 -23 58 l0 55 83 3 82 3 0 -61 c0 -53 -2 -60 -19 -60 -11 0
-23 -4 -26 -10 -4 -6 23 -10 75 -10 52 0 79 4 75 10 -3 6 -12 10 -19 10 -19 0
-26 46 -26 161 0 97 0 99 25 105 49 12 23 24 -52 23 -74 0 -77 -1 -55 -16 18
-13 22 -25 22 -68 0 -39 -4 -54 -16 -59 -22 -8 -127 -7 -140 2 -7 4 -9 28 -6
65 4 47 8 57 23 57 11 0 19 5 19 10 0 6 -32 10 -75 10 -43 0 -75 -4 -75 -10z"/>
<path d="M2804 1669 c-10 -17 13 -36 27 -22 12 12 4 33 -11 33 -5 0 -12 -5
-16 -11z"/>
<path d="M2860 1660 c0 -11 7 -20 15 -20 8 0 15 9 15 20 0 11 -7 20 -15 20 -8
0 -15 -9 -15 -20z"/>
<path d="M3444 1616 c-17 -13 -18 -18 -6 -48 11 -29 10 -34 -4 -43 -59 -35
-68 -72 -28 -112 21 -21 32 -24 61 -20 20 4 44 13 53 22 17 16 21 15 48 -5 31
-23 82 -22 82 0 0 6 -10 8 -23 5 -16 -4 -29 1 -45 18 l-22 23 38 42 39 42 -28
0 c-21 0 -26 -4 -23 -17 3 -10 -2 -27 -10 -38 -15 -20 -16 -19 -47 12 -31 31
-32 33 -16 51 45 50 -14 108 -69 68z m64 -25 c6 -37 -16 -50 -38 -23 -23 28
-16 54 14 50 13 -2 22 -12 24 -27z m-9 -105 c38 -39 36 -62 -4 -72 -27 -7 -72
16 -82 42 -6 17 23 64 40 64 7 0 28 -15 46 -34z"/>
<path d="M1048 1609 c-12 -6 -18 -22 -18 -43 0 -37 18 -57 73 -80 31 -12 38
-20 35 -38 -4 -33 -52 -37 -84 -7 l-24 22 0 -26 c0 -22 6 -27 36 -33 44 -8 81
7 96 41 17 38 -3 70 -57 94 -38 17 -46 25 -43 43 4 31 43 36 60 9 17 -28 30
-27 26 2 -2 18 -10 22 -43 24 -22 2 -48 -2 -57 -8z"/>
<path d="M1217 1602 c-22 -24 -22 -65 1 -83 9 -8 34 -23 55 -32 30 -14 38 -22
35 -40 -4 -31 -62 -37 -80 -8 -17 28 -28 26 -28 -4 0 -20 6 -25 34 -30 61 -12
106 15 106 64 0 32 -20 53 -72 74 -40 17 -52 50 -22 61 25 10 32 7 54 -16 l20
-22 0 27 c0 25 -3 27 -43 27 -30 0 -49 -6 -60 -18z"/>
<path d="M1372 1608 c12 -10 17 -34 20 -90 4 -91 16 -108 79 -115 35 -4 50 0
72 17 26 20 27 26 27 105 0 71 3 84 18 88 9 3 -3 5 -28 5 -25 0 -38 -2 -29 -5
30 -8 39 -134 13 -171 -17 -25 -71 -31 -92 -10 -7 7 -12 44 -12 94 0 70 3 83
18 87 9 3 -10 5 -42 6 -50 1 -57 -1 -44 -11z"/>
<path d="M1630 1611 c0 -5 7 -12 16 -15 13 -5 14 -19 8 -93 -4 -49 -12 -91
-18 -95 -6 -4 14 -8 44 -8 48 1 53 2 38 14 -12 9 -18 27 -18 55 0 56 17 50 53
-17 l28 -52 72 0 c45 0 67 4 58 9 -9 6 -11 18 -7 35 5 22 12 26 42 26 27 0 37
-5 43 -22 7 -17 5 -26 -7 -35 -13 -11 3 -13 89 -12 72 0 97 3 82 9 -21 8 -23
16 -23 80 0 38 3 70 8 70 4 0 43 -36 87 -80 44 -44 83 -80 87 -80 5 0 8 45 8
100 0 84 3 101 18 109 13 8 7 10 -28 10 -40 0 -43 -1 -27 -13 13 -10 17 -28
17 -77 l0 -64 -78 78 c-71 71 -81 77 -117 76 -35 0 -37 -2 -18 -11 25 -12 33
-55 25 -140 -4 -52 -7 -58 -27 -58 -30 0 -37 10 -80 118 -21 51 -42 91 -48 89
-5 -1 -26 -46 -45 -100 -47 -125 -65 -133 -114 -52 -27 44 -27 45 -8 55 28 15
26 64 -2 84 -24 17 -158 23 -158 7z m128 -45 c4 -30 -10 -46 -40 -46 -14 0
-18 9 -18 41 0 38 1 40 28 37 21 -2 28 -9 30 -32z m207 -53 c5 -20 3 -23 -19
-23 -24 0 -24 2 -14 31 11 32 21 29 33 -8z"/>
<path d="M2370 1611 c0 -5 -3 -18 -7 -28 -6 -17 -6 -17 14 0 11 9 32 17 46 17
l27 0 0 -86 c0 -71 -3 -89 -17 -100 -16 -12 -10 -13 42 -13 52 0 58 1 43 13
-15 11 -18 29 -18 100 0 85 0 86 25 86 14 0 28 -7 31 -15 9 -24 24 -17 24 10
l0 25 -105 0 c-58 0 -105 -4 -105 -9z"/>
<path d="M2623 1609 c17 -10 18 -20 12 -103 -4 -50 -12 -94 -19 -98 -6 -4 14
-8 44 -8 48 1 53 2 38 14 -15 11 -18 29 -18 96 0 67 3 85 18 96 15 12 10 13
-38 13 -44 0 -51 -2 -37 -10z"/>
<path d="M2748 1610 c20 -9 22 -15 22 -100 0 -85 -1 -91 -22 -100 -16 -6 9 -9
83 -9 102 -1 107 0 113 22 9 35 7 44 -8 25 -18 -25 -65 -40 -98 -33 -27 6 -29
10 -26 48 3 39 5 42 36 45 26 3 34 -1 41 -20 8 -19 10 -16 10 22 0 35 -2 41
-10 28 -6 -12 -22 -18 -45 -18 l-35 0 3 43 c3 39 5 42 35 45 38 4 73 -13 73
-33 0 -8 5 -15 11 -15 6 0 9 12 7 28 l-3 27 -105 2 c-72 1 -98 -1 -82 -7z"/>
<path d="M2988 1603 c20 -14 22 -24 22 -100 0 -77 -2 -84 -22 -93 -18 -7 -12
-9 27 -8 28 0 43 2 34 5 -9 2 -19 18 -23 35 -9 43 -8 118 2 118 4 0 43 -36 87
-80 44 -44 83 -80 87 -80 5 0 8 45 8 100 0 84 3 101 18 109 13 8 8 10 -27 11
-38 0 -42 -2 -28 -12 12 -9 19 -34 23 -83 l6 -70 -84 83 c-73 72 -88 82 -118
81 -35 0 -35 0 -12 -16z"/>
<path d="M4216 1598 c11 -13 32 -42 47 -65 32 -51 38 -119 10 -126 -10 -3 9
-5 42 -5 33 0 52 2 43 5 -33 8 -24 84 17 148 59 91 95 70 95 -56 0 -57 -4 -75
-17 -85 -16 -12 -10 -13 42 -13 50 0 56 2 38 11 -21 10 -23 18 -23 99 0 48 4
91 10 94 5 3 19 1 30 -5 27 -14 27 -64 0 -83 -22 -15 -17 -27 12 -27 27 0 58
36 58 69 0 50 -28 61 -155 61 -68 0 -105 -4 -96 -9 12 -8 12 -14 2 -39 -7 -17
-20 -37 -30 -46 -15 -14 -19 -11 -43 29 -25 41 -26 45 -10 54 13 8 4 10 -37
11 l-54 0 19 -22z"/>
<path d="M4681 1591 c-26 -24 -31 -36 -31 -75 0 -36 6 -52 29 -78 27 -30 35
-33 86 -33 51 0 59 3 86 33 20 23 29 43 29 68 0 74 -41 113 -116 114 -44 0
-57 -5 -83 -29z m124 -6 c20 -19 25 -34 25 -73 0 -83 -57 -126 -105 -78 -21
21 -25 35 -25 81 0 88 53 123 105 70z"/>
<path d="M4905 1599 c-8 -25 2 -39 11 -15 4 10 18 16 40 16 l34 0 0 -88 c0
-82 -2 -90 -22 -100 -19 -9 -12 -11 42 -11 56 0 63 1 48 13 -15 11 -18 29 -18
100 0 85 0 86 25 86 14 0 28 -7 31 -15 9 -24 24 -17 24 10 l0 25 -104 0 c-97
0 -105 -1 -111 -21z"/>
<path d="M5153 1609 c14 -8 17 -25 17 -104 0 -81 -2 -94 -17 -98 -10 -3 9 -5
42 -5 50 -1 56 1 38 10 -18 9 -23 20 -23 50 l0 38 60 0 60 0 0 -40 c0 -27 -6
-42 -17 -49 -14 -8 -4 -10 42 -10 46 0 56 2 43 10 -15 8 -18 25 -18 99 0 74 3
91 18 99 13 8 3 10 -43 10 -46 0 -56 -2 -42 -10 11 -7 17 -22 17 -49 l0 -40
-60 0 -60 0 0 38 c0 30 5 41 23 50 18 9 12 11 -38 11 -45 0 -56 -2 -42 -10z"/>
<path d="M5442 1610 c12 -7 18 -31 23 -84 8 -82 2 -113 -23 -119 -9 -3 31 -5
89 -6 l107 -1 5 28 c7 35 0 41 -18 15 -15 -22 -72 -38 -99 -27 -11 4 -16 19
-16 50 0 43 1 44 33 44 25 0 37 -6 45 -22 9 -20 11 -18 11 22 0 39 -1 43 -13
28 -8 -11 -26 -18 -45 -18 -30 0 -31 1 -31 45 l0 45 38 0 c42 0 54 -6 70 -35
10 -18 11 -17 12 13 l0 32 -102 0 c-72 -1 -98 -4 -86 -10z"/>
<path d="M5684 1607 c15 -11 18 -29 19 -95 0 -70 -2 -84 -19 -97 -17 -13 -14
-14 41 -14 46 0 56 2 43 10 -13 7 -18 23 -18 51 l0 41 26 -24 c38 -35 49 -60
33 -70 -8 -5 50 -8 141 -7 l155 3 3 30 c3 29 3 30 -12 9 -16 -23 -72 -39 -100
-28 -11 4 -16 19 -16 50 0 43 1 44 31 44 22 0 32 -5 36 -20 8 -31 19 -23 20
15 1 37 -11 55 -21 30 -3 -9 -18 -15 -36 -15 -29 0 -30 2 -30 45 l0 45 39 0
c31 0 44 -6 60 -27 l20 -28 1 33 0 32 -152 -1 c-84 0 -147 -3 -140 -6 21 -8
14 -27 -23 -63 l-35 -34 0 38 c0 25 6 43 18 52 15 12 9 13 -42 14 -52 0 -57
-2 -42 -13z m244 -91 c2 -49 -1 -93 -7 -99 -16 -16 -45 3 -90 59 l-43 56 28
30 c33 34 60 48 89 45 18 -2 20 -10 23 -91z"/>
<path d="M6148 1604 c20 -14 22 -24 22 -104 0 -76 -2 -89 -17 -93 -10 -3 2 -5
26 -6 39 -1 42 1 27 12 -14 10 -16 25 -14 82 l3 69 86 -82 c48 -45 90 -82 94
-82 4 0 5 43 1 96 -7 86 -5 97 11 110 16 12 14 13 -21 14 -37 0 -38 -1 -23
-18 12 -13 17 -37 17 -83 l-1 -64 -77 83 c-72 77 -80 82 -117 82 -39 0 -39 0
-17 -16z"/>
<path d="M3082 1128 c-16 -16 -15 -33 3 -48 8 -7 15 -19 15 -26 0 -17 -37 -18
-43 -1 -4 9 -6 9 -6 -1 -1 -19 27 -26 55 -14 27 13 31 34 9 52 -8 7 -15 19
-15 26 0 16 26 19 33 4 3 -6 4 -5 3 2 -3 18 -38 22 -54 6z"/>
<path d="M3174 1116 c-1 -14 -9 -38 -17 -55 -15 -30 -15 -31 7 -31 16 0 22 7
24 26 1 15 8 40 16 55 14 27 13 29 -7 29 -16 0 -22 -6 -23 -24z"/>
<path d="M3250 1125 c0 -8 4 -15 8 -15 5 0 17 -18 27 -40 13 -28 22 -37 29
-30 14 14 -28 100 -49 100 -8 0 -15 -7 -15 -15z"/>
<path d="M3330 1125 c0 -8 2 -15 4 -15 2 0 6 7 10 15 3 8 1 15 -4 15 -6 0 -10
-7 -10 -15z"/>
<path d="M3384 1116 c-1 -14 -9 -38 -17 -55 l-15 -31 48 0 c41 0 52 4 69 26
12 15 21 33 21 40 0 24 -31 44 -68 44 -32 0 -37 -3 -38 -24z m74 -9 c5 -25
-25 -67 -47 -67 -17 0 -18 4 -9 38 6 20 12 41 15 45 8 14 38 3 41 -16z"/>
<path d="M3522 1128 c-16 -16 -15 -33 3 -48 8 -7 15 -19 15 -26 0 -17 -37 -18
-43 -1 -4 9 -6 9 -6 -1 -1 -19 27 -26 55 -14 27 13 31 34 9 52 -8 7 -15 19
-15 26 0 16 26 19 33 4 3 -6 4 -5 3 2 -3 18 -38 22 -54 6z"/>
<path d="M3688 1133 c-9 -3 -15 -10 -12 -17 6 -16 -13 -68 -29 -78 -7 -5 -2
-8 14 -8 23 0 27 6 37 51 7 29 11 53 10 54 -2 1 -11 0 -20 -2z"/>
<path d="M3768 1129 c-21 -12 -23 -40 -6 -57 18 -18 33 -15 18 3 -10 12 -10
21 -2 40 7 14 11 25 9 25 -1 0 -10 -5 -19 -11z"/>
<path d="M3808 1112 c3 -20 -4 -38 -23 -60 -31 -38 -15 -43 20 -7 27 26 33 66
12 84 -11 8 -13 5 -9 -17z"/>
<path d="M3873 1133 c-20 -7 -15 -41 7 -53 26 -14 26 -40 1 -40 -12 0 -21 8
-24 23 -3 20 -4 20 -12 3 -9 -20 7 -36 37 -36 23 0 50 29 43 48 -3 8 0 21 7
29 19 23 -22 42 -59 26z m47 -19 c0 -9 -7 -14 -17 -12 -25 5 -28 28 -4 28 12
0 21 -6 21 -16z"/>
<path d="M3988 1134 c23 -11 12 -42 -25 -73 l-38 -31 42 0 c25 0 43 5 46 13 4
10 -2 13 -21 10 l-27 -5 25 21 c14 11 29 21 33 21 5 0 7 10 5 23 -2 15 -11 23
-28 24 -14 1 -19 0 -12 -3z"/>
<path d="M700 1080 c0 -7 383 -10 1130 -10 747 0 1130 3 1130 10 0 7 -383 10
-1130 10 -747 0 -1130 -3 -1130 -10z"/>
<path d="M4110 1080 c0 -7 387 -10 1140 -10 753 0 1140 3 1140 10 0 7 -387 10
-1140 10 -753 0 -1140 -3 -1140 -10z"/>
<path d="M3226 1045 c-3 -9 0 -15 9 -15 9 0 12 6 9 15 -4 8 -7 15 -9 15 -2 0
-5 -7 -9 -15z"/>
</g>
</svg>
