<?xml version="1.0" standalone="no"?>
<!DOCTYPE svg PUBLIC "-//W3C//DTD SVG 20010904//EN"
 "http://www.w3.org/TR/2001/REC-SVG-20010904/DTD/svg10.dtd">
<svg version="1.0" xmlns="http://www.w3.org/2000/svg"
 width="946.000000pt" height="313.000000pt" viewBox="0 0 946.000000 313.000000"
 preserveAspectRatio="xMidYMid meet">

<g transform="translate(0.000000,313.000000) scale(0.100000,-0.100000)"
fill="#000000" stroke="none">
<path d="M2 2028 l3 -1093 75 -37 c112 -56 213 -79 365 -85 220 -8 346 35 475
166 133 134 175 252 174 486 0 135 -3 158 -27 232 -71 214 -233 323 -464 311
-111 -6 -183 -29 -263 -84 l-50 -34 0 615 0 615 -145 0 -145 0 2 -1092z m645
-290 c92 -43 151 -152 160 -295 12 -185 -53 -332 -180 -400 -24 -13 -55 -18
-127 -18 -84 0 -102 3 -152 28 l-58 28 0 284 0 283 35 31 c98 86 218 108 322
59z"/>
<path d="M3860 2545 c0 -316 -3 -575 -7 -575 -5 0 -37 10 -73 21 -90 28 -249
29 -340 0 -147 -46 -253 -137 -320 -276 -116 -237 -87 -590 61 -758 94 -107
200 -151 349 -145 139 6 225 51 307 163 l22 30 0 -87 1 -88 140 0 140 0 0
1145 0 1145 -140 0 -140 0 0 -575z m-55 -786 l50 -24 3 -225 c1 -135 -2 -246
-8 -277 -26 -123 -117 -198 -241 -198 -56 0 -73 5 -114 30 -105 65 -155 177
-156 346 0 106 10 159 46 229 31 60 81 106 141 130 71 29 209 23 279 -11z"/>
<path d="M7600 2467 c-51 -27 -90 -90 -90 -146 0 -50 38 -121 79 -148 48 -32
144 -32 191 0 54 36 73 70 77 134 5 76 -23 129 -87 161 -57 28 -115 28 -170
-1z"/>
<path d="M1984 2010 c-121 -13 -256 -63 -341 -126 l-32 -24 40 -97 c21 -53 41
-98 43 -100 1 -2 30 14 62 35 87 58 165 84 251 84 138 0 207 -61 220 -196 l6
-66 -54 0 c-82 0 -237 -18 -303 -35 -129 -33 -226 -105 -268 -199 -33 -74 -33
-230 1 -298 31 -64 84 -116 150 -147 49 -23 69 -26 161 -26 97 0 109 2 158 29
51 28 97 72 134 126 17 24 17 23 17 -57 l1 -83 130 0 130 0 0 443 c0 487 -2
508 -61 594 -51 73 -148 127 -251 138 -105 11 -124 12 -194 5z m244 -747 c-7
-104 -28 -162 -74 -202 -90 -79 -237 -62 -283 33 -26 52 -26 89 -2 142 33 72
134 112 290 113 l74 1 -5 -87z"/>
<path d="M5184 2009 c-221 -25 -380 -163 -450 -394 -26 -83 -26 -312 -1 -405
50 -186 158 -311 323 -372 50 -18 81 -21 204 -22 134 -1 152 1 232 28 85 27
231 113 251 146 6 11 -6 41 -44 105 -29 50 -54 92 -55 93 -1 2 -26 -15 -56
-39 -67 -53 -141 -86 -227 -101 -165 -28 -301 58 -353 224 -10 33 -18 73 -18
89 l0 29 391 0 392 0 -7 88 c-14 190 -59 314 -145 405 -98 103 -248 146 -437
126z m143 -214 c28 -8 63 -25 78 -37 32 -25 75 -111 75 -150 l0 -28 -240 0
c-269 0 -257 -4 -225 73 51 124 179 181 312 142z"/>
<path d="M6849 2010 c-83 -14 -159 -68 -211 -149 l-28 -45 0 87 0 87 -145 0
-145 0 0 -580 0 -580 145 0 145 0 0 340 c0 366 5 412 49 483 55 86 187 116
295 68 25 -11 46 -17 46 -15 0 3 14 64 30 136 17 71 30 133 30 137 0 21 -144
42 -211 31z"/>
<path d="M8868 2009 c-218 -24 -373 -154 -445 -373 -23 -71 -26 -97 -26 -216
-1 -216 46 -352 158 -465 109 -109 233 -150 430 -142 129 5 221 30 314 83 58
34 131 92 131 105 0 8 -94 175 -106 188 -2 2 -22 -13 -46 -33 -120 -103 -295
-141 -417 -90 -87 36 -172 159 -187 272 l-7 52 393 0 393 0 -6 96 c-15 230
-92 388 -228 467 -82 48 -224 71 -351 56z m182 -229 c60 -31 110 -110 110
-176 l0 -24 -240 0 c-271 0 -258 -5 -219 80 33 74 88 121 164 141 46 12 141 2
185 -21z"/>
<path d="M7540 1410 l0 -580 145 0 145 0 0 580 0 580 -145 0 -145 0 0 -580z"/>
<path d="M2217 193 c-4 -3 -7 -48 -7 -100 l0 -93 2515 0 2515 0 0 100 0 100
-2508 0 c-1380 0 -2512 -3 -2515 -7z"/>
</g>
</svg>
