<?xml version="1.0" standalone="no"?>
<!DOCTYPE svg PUBLIC "-//W3C//DTD SVG 20010904//EN"
 "http://www.w3.org/TR/2001/REC-SVG-20010904/DTD/svg10.dtd">
<svg version="1.0" xmlns="http://www.w3.org/2000/svg"
 width="842.000000pt" height="595.000000pt" viewBox="0 0 842.000000 595.000000"
 preserveAspectRatio="xMidYMid meet">

<g transform="translate(0.000000,595.000000) scale(0.100000,-0.100000)"
fill="#000000" stroke="none">
<path d="M2760 3610 c0 -5 5 -10 10 -10 6 0 10 5 10 10 0 6 -4 10 -10 10 -5 0
-10 -4 -10 -10z"/>
<path d="M2995 3608 c-2 -7 -9 -42 -15 -78 -6 -36 -14 -76 -17 -90 -3 -14 -2
-22 2 -18 8 8 45 198 38 198 -2 0 -6 -6 -8 -12z"/>
<path d="M3476 3524 c-9 -53 -15 -98 -13 -101 3 -2 12 39 22 92 9 53 15 98 13
101 -3 2 -12 -39 -22 -92z"/>
<path d="M3706 3524 c-9 -53 -15 -99 -12 -102 4 -3 6 2 6 12 0 16 2 16 22 2
31 -22 63 -20 92 7 37 31 44 79 17 106 -25 25 -58 27 -89 5 -22 -15 -22 -15
-16 25 4 23 4 41 2 41 -3 0 -12 -43 -22 -96z m120 11 c39 -60 -50 -140 -100
-89 -23 23 -19 61 9 89 32 33 70 32 91 0z"/>
<path d="M2501 3538 c4 -40 8 -83 8 -95 2 -41 18 -24 56 60 42 92 47 90 60
-25 4 -32 9 -58 13 -58 4 0 14 17 23 38 9 20 28 63 43 95 14 31 23 57 20 57
-2 0 -21 -37 -41 -81 -41 -91 -45 -89 -58 24 -4 31 -10 57 -14 57 -4 0 -25
-37 -46 -82 l-38 -83 -8 40 c-4 22 -8 59 -8 83 -1 23 -5 42 -9 42 -4 0 -5 -33
-1 -72z"/>
<path d="M2755 3558 c-2 -7 -6 -31 -10 -53 -3 -22 -9 -51 -12 -65 -3 -14 -2
-22 2 -18 8 8 35 148 28 148 -2 0 -5 -6 -8 -12z"/>
<path d="M2826 3548 c-37 -32 -44 -80 -17 -107 12 -12 31 -21 44 -21 25 0 67
26 67 41 0 5 -9 0 -20 -11 -24 -24 -63 -26 -84 -4 -33 32 -20 44 48 44 68 0
86 13 66 50 -19 36 -68 40 -104 8z m81 4 c6 -4 13 -16 15 -27 3 -18 -3 -20
-54 -23 -46 -2 -58 0 -58 12 0 31 66 58 97 38z"/>
<path d="M3056 3548 c-37 -32 -44 -80 -17 -107 12 -12 31 -21 44 -21 25 0 67
26 67 41 0 5 -9 0 -20 -11 -24 -24 -63 -26 -84 -4 -33 32 -20 44 48 44 68 0
86 13 66 50 -19 36 -68 40 -104 8z m81 4 c6 -4 13 -16 15 -27 3 -18 -3 -20
-54 -23 -46 -2 -58 0 -58 12 0 31 66 58 97 38z"/>
<path d="M3216 3560 c-9 -31 -26 -134 -22 -137 5 -5 12 19 21 70 4 28 14 43
38 57 18 11 28 20 22 20 -5 0 -17 -4 -25 -10 -9 -6 -17 -5 -22 3 -5 8 -8 7
-12 -3z"/>
<path d="M3327 3550 c-16 -13 -29 -36 -33 -57 -6 -31 -3 -39 16 -55 12 -10 32
-18 44 -18 24 0 66 26 66 41 0 5 -9 0 -20 -11 -24 -24 -63 -26 -84 -4 -28 27
-12 87 28 105 30 14 76 4 76 -16 0 -8 5 -15 10 -15 16 0 -6 36 -26 44 -28 11
-51 7 -77 -14z"/>
<path d="M3537 3553 c-3 -10 -8 -37 -12 -59 -7 -47 11 -75 48 -73 22 2 22 2
-1 6 -33 7 -43 34 -33 90 9 48 8 71 -2 36z"/>
<path d="M3645 3523 c-4 -26 -11 -55 -15 -64 -5 -8 -5 -21 0 -28 5 -9 12 13
20 58 7 40 10 74 7 77 -2 3 -8 -17 -12 -43z"/>
<path d="M3400 3175 c0 -48 -2 -55 -20 -55 -11 0 -20 -7 -20 -15 0 -8 9 -15
20 -15 19 0 20 -7 20 -140 0 -118 2 -140 15 -140 13 0 15 22 15 140 l0 140 25
0 c16 0 25 6 25 15 0 9 -9 15 -25 15 -24 0 -25 3 -25 55 0 42 -3 55 -15 55
-12 0 -15 -13 -15 -55z"/>
<path d="M2699 3103 c-40 -107 -91 -233 -93 -233 -2 0 -27 56 -56 125 -31 72
-59 125 -66 125 -8 0 -14 -3 -14 -7 0 -16 127 -305 134 -306 5 -1 29 51 55
115 25 64 49 119 52 123 4 3 28 -47 54 -112 25 -65 50 -122 55 -126 6 -7 91
180 137 300 3 7 -2 13 -10 13 -10 0 -33 -43 -67 -125 -29 -69 -54 -125 -55
-125 -2 0 -26 59 -55 130 -29 72 -54 130 -56 130 -3 0 -9 -12 -15 -27z"/>
<path d="M3070 3108 c-54 -28 -80 -74 -80 -143 0 -63 32 -121 80 -147 45 -25
115 -20 159 11 31 22 31 22 31 2 0 -12 7 -21 15 -21 13 0 15 24 15 155 0 131
-2 155 -15 155 -10 0 -15 -10 -15 -27 l0 -26 -22 21 c-50 46 -103 52 -168 20z
m157 -52 c27 -30 33 -44 33 -82 0 -87 -49 -144 -123 -144 -62 0 -117 63 -117
135 0 120 129 176 207 91z"/>
<path d="M3606 3120 c-115 -36 -136 -217 -35 -293 59 -43 166 -28 204 29 26
40 6 49 -30 14 -40 -39 -97 -50 -143 -26 -33 17 -62 61 -62 95 0 19 7 21 133
23 l132 3 -3 30 c-5 39 -30 83 -62 106 -30 22 -95 31 -134 19z m100 -36 c32
-15 64 -57 64 -84 0 -6 -41 -10 -115 -10 -74 0 -115 4 -115 10 0 26 32 68 62
83 42 21 62 21 104 1z"/>
<path d="M3937 3110 c-22 -18 -27 -19 -27 -6 0 9 -7 16 -15 16 -13 0 -15 -24
-15 -155 0 -131 2 -155 15 -155 12 0 15 20 15 119 0 104 3 121 20 144 11 14
32 27 46 29 30 4 37 22 8 26 -11 2 -32 -7 -47 -18z"/>
<path d="M5883 3115 c-13 -9 -23 -11 -23 -6 0 6 -9 11 -20 11 -19 0 -20 -7
-20 -155 0 -151 1 -155 21 -155 20 0 21 5 19 88 -5 170 3 195 56 197 18 1 29
7 29 16 0 20 -36 22 -62 4z"/>
<path d="M4863 3088 c99 -228 119 -274 126 -281 7 -7 141 287 141 307 0 3 -6
6 -14 6 -8 0 -35 -50 -66 -125 -29 -69 -55 -123 -58 -120 -3 3 -29 58 -57 123
-34 76 -57 118 -69 120 -16 3 -16 1 -3 -30z"/>
<path d="M5180 3018 c0 -173 22 -213 116 -213 45 0 58 4 81 28 27 27 28 31 31
157 3 113 2 130 -12 130 -14 0 -16 -15 -16 -97 0 -112 -12 -168 -40 -183 -31
-16 -78 -12 -100 10 -18 18 -20 33 -20 145 0 118 -1 125 -20 125 -19 0 -20 -7
-20 -102z"/>
<path d="M5502 2990 c3 -126 4 -130 31 -157 23 -24 36 -28 81 -28 94 0 116 40
116 213 0 95 -1 102 -20 102 -19 0 -20 -7 -20 -125 0 -112 -2 -127 -20 -145
-22 -22 -69 -26 -100 -10 -28 15 -40 71 -40 183 0 82 -2 97 -16 97 -14 0 -15
-17 -12 -130z"/>
<path d="M4350 3082 c-34 -34 -37 -57 -14 -90 15 -21 15 -24 0 -35 -24 -19
-37 -63 -26 -91 16 -42 56 -61 130 -60 99 0 100 1 100 84 0 66 2 71 25 80 22
8 24 13 15 29 -15 29 -23 31 -66 16 -52 -19 -83 -18 -91 1 -7 19 12 33 38 27
13 -4 22 3 30 21 7 14 9 29 6 33 -4 3 -32 8 -62 11 -50 4 -57 2 -85 -26z m100
-178 c0 -38 -3 -45 -17 -42 -25 5 -30 58 -7 75 24 18 24 19 24 -33z"/>
<path d="M4619 2567 c-73 -49 -70 -158 4 -172 20 -4 43 -2 54 4 14 9 12 9 -14
5 -51 -10 -83 16 -83 67 0 51 13 75 50 94 42 22 68 19 95 -11 14 -15 25 -22
25 -16 0 17 -50 52 -75 52 -12 0 -37 -10 -56 -23z"/>
<path d="M4797 2518 c-3 -12 -8 -45 -10 -73 -3 -27 -3 -41 0 -30 17 78 26 96
51 109 15 9 23 15 17 15 -5 1 -17 -3 -25 -9 -9 -6 -17 -5 -21 1 -3 6 -9 0 -12
-13z"/>
<path d="M4899 2511 c-34 -35 -38 -72 -9 -101 29 -29 66 -25 101 9 36 37 39
83 7 105 -34 24 -66 19 -99 -13z m95 3 c23 -23 19 -61 -9 -89 -46 -47 -113
-21 -101 39 11 57 75 86 110 50z"/>
<path d="M5061 2470 c-6 -40 -10 -75 -7 -77 2 -2 7 15 11 39 4 24 11 51 17 61
5 10 5 24 0 33 -6 11 -12 -5 -21 -56z"/>
<path d="M5137 2533 c38 -7 46 -27 36 -87 -6 -31 -7 -53 -3 -51 4 3 11 30 15
62 6 48 4 59 -11 70 -10 7 -27 12 -38 12 -20 -2 -20 -2 1 -6z"/>
<path d="M5231 2469 c-6 -40 -10 -74 -7 -76 2 -2 9 28 16 67 7 39 10 73 8 76
-3 2 -10 -28 -17 -67z"/>
<path d="M5297 2518 c-3 -12 -8 -48 -11 -78 l-6 -55 14 59 c14 62 34 86 73 86
32 0 43 -27 32 -84 -5 -27 -7 -51 -5 -53 2 -3 7 9 10 26 3 17 8 44 12 60 9 48
-43 79 -86 51 -9 -6 -17 -5 -21 1 -3 6 -9 0 -12 -13z"/>
<path d="M5486 2518 c-37 -32 -44 -80 -17 -107 12 -12 31 -21 44 -20 17 1 15
3 -10 10 -17 5 -34 18 -38 28 -9 29 5 70 28 86 69 48 132 -31 72 -90 -24 -25
-21 -36 4 -12 11 10 12 7 7 -18 -14 -60 -80 -86 -110 -43 -13 18 -16 19 -16 6
0 -20 29 -38 59 -38 43 0 70 40 87 129 8 46 13 86 10 89 -3 3 -6 -2 -6 -12 0
-16 -2 -16 -22 -2 -31 22 -63 20 -92 -6z"/>
<path d="M5724 2530 c30 -9 46 -25 46 -47 0 -9 -19 -13 -60 -13 -64 0 -72 8
-40 40 11 11 16 20 10 20 -17 0 -43 -50 -43 -82 0 -59 62 -77 110 -32 l28 26
-29 -21 c-47 -34 -96 -23 -96 21 0 15 9 18 65 18 62 0 65 1 65 23 0 30 -29 57
-61 56 -22 -1 -22 -1 5 -9z"/>
<path d="M5827 2518 c-3 -12 -8 -48 -11 -78 l-6 -55 14 59 c14 62 34 86 73 86
32 0 43 -27 32 -84 -5 -27 -7 -51 -5 -53 2 -3 7 9 10 26 3 17 8 44 12 60 9 48
-43 79 -86 51 -9 -6 -17 -5 -21 1 -3 6 -9 0 -12 -13z"/>
<path d="M4697 2481 l43 -6 -20 -35 -21 -35 26 28 c39 43 33 57 -22 55 l-48
-1 42 -6z"/>
</g>
</svg>
