<?xml version="1.0" encoding="UTF-8"?>
<svg id="Layer_2" data-name="Layer 2" xmlns="http://www.w3.org/2000/svg" viewBox="0 0 228.62 84.48">
  <defs>
    <style>
      .cls-1 {
        fill: #24201f;
        stroke-width: 0px;
      }
    </style>
  </defs>
  <g id="Layer_1-2" data-name="Layer 1">
    <path class="cls-1" d="M30.2,19.58h-10.37v-8.45h9.29c7.57,0,9.83,1.55,9.83,4.23,0,3.81-5.05,4.23-8.75,4.23M49.13,23.81c6.58-1.6,9.65-6.25,9.65-10.66,0-8.04-9.74-12.15-21.01-12.15H0v42.51h19.84v-14.82h10.55c7.84,0,8.38,4.23,8.93,8.27.27,2.21.63,4.41,1.62,6.55h19.83c-1.8-1.96-1.89-7.02-2.16-9.11-.72-5.3-4.06-9.22-9.47-10.6M195.98,33.94c-5.05,0-12.8-2.2-12.8-11.67s7.76-11.67,12.8-11.67,12.81,2.2,12.81,11.67-7.76,11.67-12.81,11.67M195.98,0c-19.56,0-32.64,9.29-32.64,22.26s13.07,22.27,32.64,22.27,32.64-9.29,32.64-22.27S215.54,0,195.98,0M66.81,43.52h19.83V1.01h-19.83v42.51ZM135.23,15.77h-18.58V1.01h-19.83v42.51h19.83v-16.85h18.58v16.85h19.83V1.01h-19.83v14.76Z"/>
    <path class="cls-1" d="M217.3,77.55c-2.95,0-5.53-2.25-5.53-5.48v-.06c-.1-3.32,1.99-5.28,5.53-5.42,2.97-.12,5.92,2.13,5.92,5.45v.06c0,3.26-2.95,5.45-5.92,5.45M217.5,84.48c2.11,0,3.96-.67,5.2-1.91,1.15-1.15,1.82-2.78,1.82-4.86v-12.1h-1.37v2.86c-1.18-1.69-3.12-3.2-5.98-3.2-3.45,0-6.88,2.66-6.88,6.79v.06c0,4.1,3.42,6.74,6.88,6.74,2.84,0,4.75-1.54,5.98-3.31v2.08c0,3.68-2.33,5.56-5.62,5.56-2.11,0-4.07-.7-5.79-2.02l-.81,1.12c1.96,1.46,4.18,2.19,6.57,2.19M194,79.93h1.37v-8.28c0-2.98,2.16-5.11,4.97-5.11s4.55,1.94,4.55,4.89v8.51h1.37v-8.76c0-3.43-2.1-5.89-5.73-5.89-2.61,0-4.21,1.32-5.17,3v-2.66h-1.37v14.31ZM187.2,79.93h1.37v-14.31h-1.37v14.31ZM187.04,61.88h1.71v-1.88h-1.71v1.88ZM175.63,80.05h1.18l6.43-14.43h-1.54l-5.47,12.77-5.42-12.77h-1.6l6.43,14.43ZM163.87,79.93h1.37v-14.31h-1.37v14.31ZM163.71,61.88h1.71v-1.88h-1.71v1.88ZM146.61,79.93h13v-1.34h-11.54v-18.31h-1.46v19.65ZM111.18,79.93h1.37v-8.25c0-2.89,2.02-5.14,4.58-5.14s4.19,1.83,4.19,4.8v8.59h1.37v-8.34c0-3.2,2.11-5.05,4.52-5.05,2.64,0,4.24,1.8,4.24,4.89v8.51h1.37v-8.68c0-3.59-2.1-5.98-5.5-5.98-2.7,0-4.24,1.48-5.17,3.08-.78-1.66-2.33-3.08-4.83-3.08s-3.85,1.4-4.77,2.89v-2.55h-1.37v14.31ZM99.61,78.98c-3.31,0-5.9-2.75-5.9-6.21v-.06c0-3.37,2.44-6.15,5.84-6.15s5.9,2.75,5.9,6.21v.06c0,3.37-2.44,6.15-5.84,6.15M99.55,80.27c4.27,0,7.38-3.48,7.38-7.49v-.06c0-4.02-3.09-7.44-7.33-7.44s-7.38,3.48-7.38,7.49v.06c0,4.02,3.09,7.44,7.33,7.44M81.64,78.98c-3.31,0-5.9-2.75-5.9-6.21v-.06c0-3.37,2.44-6.15,5.84-6.15s5.9,2.75,5.9,6.21v.06c0,3.37-2.44,6.15-5.84,6.15M81.58,80.27c4.27,0,7.38-3.48,7.38-7.49v-.06c0-4.02-3.09-7.44-7.33-7.44s-7.38,3.48-7.38,7.49v.06c0,4.02,3.08,7.44,7.33,7.44M64.71,79.93h1.37v-5.87c0-4.66,2.89-7.16,6.21-7.16h.14v-1.51c-2.84-.11-5.22,1.74-6.35,4.29v-4.07h-1.37v14.31ZM47.5,79.93h1.37v-8.28c0-2.98,2.16-5.11,4.97-5.11s4.55,1.94,4.55,4.89v8.51h1.37v-8.76c0-3.43-2.1-5.89-5.72-5.89-2.61,0-4.21,1.32-5.17,3v-8.84h-1.37v20.49ZM41.04,80.19c.9,0,1.6-.17,2.33-.5v-1.29c-.81.37-1.4.51-2.11.51-1.66,0-2.86-.73-2.86-2.78v-9.24h5.03v-1.26h-5.03v-4.58h-1.37v4.58h-2.08v1.26h2.08v9.38c0,2.72,1.79,3.93,4.01,3.93M24.73,78.98c-2.19,0-4.16-1.21-4.16-3.29v-.06c0-1.99,1.69-3.34,4.72-3.34,2.05,0,3.65.34,4.86.65v1.63c0,2.61-2.5,4.41-5.42,4.41M24.64,80.27c2.73,0,4.49-1.34,5.48-2.72v2.38h1.34v-8.92c0-1.77-.5-3.09-1.46-4.05-1.04-1.04-2.58-1.57-4.52-1.57s-3.51.5-5.08,1.23l.5,1.21c1.32-.67,2.75-1.15,4.49-1.15,2.95,0,4.72,1.49,4.72,4.38v.62c-1.38-.36-2.75-.62-4.75-.62-3.71,0-6.26,1.68-6.26,4.66v.06c0,2.98,2.86,4.49,5.53,4.49M1.79,78.59v-7.89h6.66c3.88,0,5.98,1.4,5.98,3.82v.06c0,2.47-2.14,4.02-5.51,4.02H1.79ZM1.79,69.35v-7.72h6.63c3.15,0,4.91,1.46,4.91,3.62v.06c0,2.61-2.11,4.05-5.05,4.05H1.79ZM.33,79.93h8.53c4.24,0,7.05-2.07,7.05-5.36v-.06c0-2.72-2.07-4.07-4.43-4.69,1.6-.64,3.34-1.99,3.34-4.66v-.06c0-1.24-.45-2.28-1.26-3.09-1.09-1.09-2.89-1.74-5.11-1.74H.33v19.65Z"/>
  </g>
</svg>