<?xml version="1.0" encoding="UTF-8"?>
<svg id="Layer_2" data-name="Layer 2" xmlns="http://www.w3.org/2000/svg" viewBox="0 0 283.42 103.15">
  <defs>
    <style>
      .cls-1, .cls-2, .cls-3, .cls-4 {
        stroke-width: 0px;
      }

      .cls-1, .cls-4 {
        fill: #231f20;
      }

      .cls-2 {
        fill: #ed1c24;
      }

      .cls-3 {
        fill: #060606;
      }

      .cls-4 {
        fill-rule: evenodd;
      }
    </style>
  </defs>
  <g id="Ebene_1" data-name="Ebene 1">
    <g>
      <path class="cls-3" d="M.54,68.98c4.82,1.56,11.12,2.33,16.17,2.33,12.05,0,23.87-3.81,23.87-17.88,0-19.59-25.65-13.68-25.65-22.47,0-4.74,6.06-5.05,9.72-5.05,4.12,0,8.32.78,12.05,2.49l.93-11.2c-3.65-1.25-8.79-2.03-13.99-2.03C12.75,15.17,0,18.75,0,31.82c0,19.75,25.66,13.37,25.66,23.48,0,4.35-4.35,5.29-8.94,5.29-5.99,0-11.2-1.55-14.93-3.58l-1.24,11.97h0Z"/>
      <path class="cls-4" d="M66.15,71.31c13.37,0,23.56-7.78,23.56-21.15s-10.19-21.23-23.56-21.23-23.56,7.77-23.56,21.23,10.19,21.15,23.56,21.15h0ZM66.15,61.52c-6.45,0-9.09-5.37-9.09-11.35s2.64-11.43,9.09-11.43,9.1,5.36,9.1,11.43-2.64,11.35-9.1,11.35h0Z"/>
      <path class="cls-4" d="M93.06,86.71h14v-22h.15c2.64,4.82,7.93,6.61,12.83,6.61,12.05,0,18.5-9.95,18.5-21.92,0-9.8-6.14-20.45-17.34-20.45-6.37,0-12.28,2.56-15.08,8.24h-.15v-7.31h-12.91v56.83h0ZM124.09,49.7c0,6.45-3.19,10.88-8.48,10.88-4.67,0-8.55-4.43-8.55-10.34s3.42-10.57,8.55-10.57c5.44,0,8.48,4.67,8.48,10.03h0Z"/>
      <path class="cls-1" d="M171.83,29.41c-1.4-.23-3.11-.46-4.74-.46-6.06,0-9.56,3.26-11.97,8.39h-.16v-7.46h-12.75v40.5h13.99v-17.11c0-7.93,3.66-12.67,10.19-12.67,1.63,0,3.19,0,4.74.47l.7-11.66h0Z"/>
      <path class="cls-4" d="M195.22,71.31c13.37,0,23.56-7.78,23.56-21.15s-10.19-21.23-23.56-21.23-23.56,7.77-23.56,21.23,10.18,21.15,23.56,21.15h0ZM195.22,61.52c-6.45,0-9.1-5.37-9.1-11.35s2.64-11.43,9.1-11.43,9.1,5.36,9.1,11.43-2.64,11.35-9.1,11.35h0Z"/>
    </g>
    <path class="cls-2" d="M184.51,0l-5.32,13.17c40.21,5.88,68.63,20.25,68.63,37.06,0,20.88-43.85,38.01-99.69,39.76l-5.32,13.16c78.03-.79,140.61-24.18,140.61-52.92,0-23.38-41.43-43.22-98.91-50.23Z"/>
  </g>
</svg>